<?xml version="1.0" encoding="UTF-8" standalone="no"?>
<svg width="800" height="500" viewBox="0 0 800 500" xmlns="http://www.w3.org/2000/svg">
  <!-- Background -->
  <rect width="800" height="500" fill="#f8fafc" rx="8" ry="8"/>
  
  <!-- Header -->
  <rect width="800" height="60" fill="#1e40af" rx="8" ry="8"/>
  <text x="30" y="38" font-family="Arial" font-size="22" font-weight="bold" fill="white">Formula One Dashboard</text>
  
  <!-- Sidebar -->
  <rect x="0" y="60" width="200" height="440" fill="#f1f5f9" rx="0" ry="0"/>
  
  <!-- Sidebar Menu Items -->
  <rect x="20" y="90" width="160" height="40" fill="#e2e8f0" rx="6" ry="6"/>
  <text x="55" y="115" font-family="Arial" font-size="14" fill="#334155">Dashboard</text>
  
  <text x="55" y="165" font-family="Arial" font-size="14" fill="#64748b">Students</text>
  <text x="55" y="215" font-family="Arial" font-size="14" fill="#64748b">Instructors</text>
  <text x="55" y="265" font-family="Arial" font-size="14" fill="#64748b">Scheduling</text>
  <text x="55" y="315" font-family="Arial" font-size="14" fill="#64748b">Analytics</text>
  <text x="55" y="365" font-family="Arial" font-size="14" fill="#64748b">Finances</text>
  <text x="55" y="415" font-family="Arial" font-size="14" fill="#64748b">Settings</text>
  
  <!-- Main Content Area -->
  <rect x="220" y="80" width="560" height="100" fill="white" rx="8" ry="8" stroke="#e2e8f0" stroke-width="1"/>
  
  <!-- KPI Cards -->
  <rect x="240" y="100" width="120" height="60" fill="#eff6ff" rx="6" ry="6"/>
  <text x="250" y="120" font-family="Arial" font-size="12" fill="#64748b">Active Students</text>
  <text x="250" y="145" font-family="Arial" font-size="22" font-weight="bold" fill="#1e40af">1,248</text>
  
  <rect x="380" y="100" width="120" height="60" fill="#f0fdf4" rx="6" ry="6"/>
  <text x="390" y="120" font-family="Arial" font-size="12" fill="#64748b">Monthly Revenue</text>
  <text x="390" y="145" font-family="Arial" font-size="22" font-weight="bold" fill="#15803d">$52,450</text>
  
  <rect x="520" y="100" width="120" height="60" fill="#fef2f2" rx="6" ry="6"/>
  <text x="530" y="120" font-family="Arial" font-size="12" fill="#64748b">Lesson Completion</text>
  <text x="530" y="145" font-family="Arial" font-size="22" font-weight="bold" fill="#b91c1c">94.2%</text>
  
  <!-- Chart Area -->
  <rect x="220" y="200" width="360" height="280" fill="white" rx="8" ry="8" stroke="#e2e8f0" stroke-width="1"/>
  <text x="240" y="230" font-family="Arial" font-size="16" font-weight="bold" fill="#334155">Monthly Registrations</text>
  
  <!-- Bar Chart -->
  <rect x="240" y="400" width="40" height="60" fill="#3b82f6" rx="4" ry="4"/>
  <rect x="290" y="370" width="40" height="90" fill="#3b82f6" rx="4" ry="4"/>
  <rect x="340" y="340" width="40" height="120" fill="#3b82f6" rx="4" ry="4"/>
  <rect x="390" y="310" width="40" height="150" fill="#3b82f6" rx="4" ry="4"/>
  <rect x="440" y="350" width="40" height="110" fill="#3b82f6" rx="4" ry="4"/>
  <rect x="490" y="320" width="40" height="140" fill="#3b82f6" rx="4" ry="4"/>
  
  <!-- X-axis labels -->
  <text x="250" y="430" font-family="Arial" font-size="10" fill="#64748b">Jan</text>
  <text x="300" y="430" font-family="Arial" font-size="10" fill="#64748b">Feb</text>
  <text x="350" y="430" font-family="Arial" font-size="10" fill="#64748b">Mar</text>
  <text x="400" y="430" font-family="Arial" font-size="10" fill="#64748b">Apr</text>
  <text x="450" y="430" font-family="Arial" font-size="10" fill="#64748b">May</text>
  <text x="500" y="430" font-family="Arial" font-size="10" fill="#64748b">Jun</text>
  
  <!-- Side Panel -->
  <rect x="600" y="200" width="180" height="280" fill="white" rx="8" ry="8" stroke="#e2e8f0" stroke-width="1"/>
  <text x="620" y="230" font-family="Arial" font-size="16" font-weight="bold" fill="#334155">Top Instructors</text>
  
  <!-- Instructor List -->
  <text x="620" y="260" font-family="Arial" font-size="14" fill="#334155">1. Sarah Johnson</text>
  <text x="620" y="280" font-family="Arial" font-size="12" fill="#64748b">32 students • 4.9 ★</text>
  
  <text x="620" y="310" font-family="Arial" font-size="14" fill="#334155">2. Michael Chen</text>
  <text x="620" y="330" font-family="Arial" font-size="12" fill="#64748b">28 students • 4.8 ★</text>
  
  <text x="620" y="360" font-family="Arial" font-size="14" fill="#334155">3. David Wilson</text>
  <text x="620" y="380" font-family="Arial" font-size="12" fill="#64748b">25 students • 4.7 ★</text>
  
  <text x="620" y="410" font-family="Arial" font-size="14" fill="#334155">4. Emma Garcia</text>
  <text x="620" y="430" font-family="Arial" font-size="12" fill="#64748b">23 students • 4.9 ★</text>
</svg>
